<?xml version="1.0" standalone="no"?>
<!DOCTYPE svg PUBLIC "-//W3C//DTD SVG 20010904//EN"
 "http://www.w3.org/TR/2001/REC-SVG-20010904/DTD/svg10.dtd">
<svg version="1.0" xmlns="http://www.w3.org/2000/svg"
 width="494.000000pt" height="494.000000pt" viewBox="0 0 494.000000 494.000000"
 preserveAspectRatio="xMidYMid meet">
<metadata>
Created by potrace 1.14, written by Peter Selinger 2001-2017
</metadata>
<g transform="translate(0.000000,494.000000) scale(0.100000,-0.100000)"
fill="#000000" stroke="none">
<path d="M885 4918 c-155 -90 -100 -327 76 -330 40 0 40 -1 32 -32 -4 -17 -7
-61 -6 -98 1 -68 18 -106 64 -148 18 -17 100 -125 115 -152 5 -9 8 -63 6 -120
l-3 -104 -45 -24 c-60 -31 -107 -91 -132 -165 -44 -131 -47 -217 -14 -390 12
-60 24 -128 27 -150 29 -226 25 -547 -9 -580 -36 -36 -30 -176 10 -258 30 -61
30 -65 -3 -62 -118 9 -198 -104 -154 -217 15 -40 86 -88 131 -88 33 0 36 -2
36 -28 l-1 -27 126 -3 126 -3 -1 -487 -1 -488 -38 -52 c-27 -36 -35 -53 -25
-56 7 -3 18 -6 25 -8 15 -4 -73 -111 -94 -114 -18 -3 -14 2 -52 -60 -51 -85
-49 -88 97 -124 87 -21 124 -44 65 -40 -16 1 -73 2 -129 1 l-101 -1 2 -28 1
-27 115 -1 c62 -1 119 -2 125 -3 6 -1 10 -56 10 -161 l0 -159 -25 -10 c-14 -5
-89 -31 -166 -57 -77 -26 -143 -49 -147 -53 -4 -3 164 -6 372 -6 208 0 376 3
372 6 -4 4 -70 27 -147 53 -77 26 -152 51 -166 57 l-26 10 -1 160 c0 114 3
159 11 160 7 1 73 2 147 3 133 1 135 1 136 23 2 32 -10 45 -106 112 -47 33
-106 75 -132 93 -26 18 -48 36 -48 40 0 3 11 20 25 37 25 29 27 30 64 16 l38
-13 84 90 c46 49 113 121 149 159 l66 70 12 -48 c6 -26 48 -194 92 -373 44
-179 82 -335 85 -347 4 -18 12 -23 35 -23 23 0 30 -4 30 -20 0 -26 0 -24 10
-59 5 -18 4 -33 -3 -40 -16 -16 -21 -139 -7 -157 11 -12 53 -14 271 -12 141 2
261 7 265 11 4 4 3 20 -2 34 -8 23 -33 37 -169 95 -88 37 -168 66 -177 64 -10
-2 -18 2 -18 9 0 7 -3 27 -6 44 -6 29 -4 31 20 31 30 0 30 -4 7 155 -6 39 -13
88 -16 110 -3 22 -10 69 -15 105 -5 36 -12 81 -14 100 -6 39 -13 85 -27 178
-5 34 -12 84 -15 110 -3 26 -7 54 -9 62 -2 8 -7 35 -10 60 -14 112 -26 197
-30 215 -3 14 19 44 76 105 44 47 86 100 94 119 18 39 19 98 4 138 -5 15 -108
148 -227 296 -119 148 -226 281 -237 296 -22 29 -137 173 -145 181 -3 3 -24
28 -47 57 l-43 52 0 97 0 97 22 -29 c27 -36 38 -44 60 -44 9 0 93 60 186 133
473 369 451 351 440 371 -8 14 -5 23 10 38 18 18 22 19 63 5 94 -32 180 17
195 111 15 97 -67 181 -163 166 -45 -7 -59 -16 -134 -89 -42 -41 -64 -55 -77
-51 -10 4 -26 -1 -38 -12 -10 -10 -75 -60 -144 -112 -69 -52 -132 -100 -140
-107 -90 -72 -146 -111 -151 -105 -19 20 -108 200 -105 212 1 8 11 42 21 75
10 33 19 92 19 131 1 81 0 82 -140 270 l-83 110 2 82 c0 45 3 82 6 83 3 0 20
2 36 3 69 7 138 69 151 135 5 24 14 36 35 43 16 5 29 12 29 15 0 3 -13 27 -28
52 -31 49 -39 125 -14 127 6 1 17 2 22 3 14 1 12 57 -3 107 -37 123 -149 193
-317 199 -49 2 -102 -3 -127 -10 l-43 -13 3 26 c2 15 -1 46 -8 69 -21 71 -76
112 -157 119 -43 4 -61 0 -93 -18z m582 -3063 c25 -44 62 -111 82 -150 21 -38
55 -101 75 -138 20 -38 34 -73 30 -80 -7 -10 -275 -371 -311 -417 -9 -12 -12
85 -11 428 l0 443 45 -3 46 -3 44 -80z"/>
<path d="M3491 3396 c-68 -194 -127 -359 -131 -365 -5 -9 -108 -12 -393 -12
l-387 -1 2 -24 c1 -13 7 -24 12 -24 5 0 7 -3 4 -6 -3 -3 -102 -6 -219 -7
l-214 -2 0 -52 -1 -53 228 0 228 0 1 -22 c0 -13 1 -653 2 -1423 l2 -1400 25 0
25 0 3 1423 2 1422 465 0 465 0 0 -1423 0 -1424 28 2 27 1 3 1422 2 1422 235
0 c149 0 235 4 236 10 1 6 1 19 1 30 0 11 0 31 -1 45 l-1 25 -367 0 c-203 -1
-367 2 -366 7 2 6 142 418 143 418 5 0 117 351 114 357 -3 4 -15 8 -27 8 -21
0 -34 -32 -146 -354z m-834 -432 c-3 -3 -12 -4 -19 -1 -8 3 -5 6 6 6 11 1 17
-2 13 -5z m66 -1 c-7 -2 -19 -2 -25 0 -7 3 -2 5 12 5 14 0 19 -2 13 -5z m44 1
c-3 -3 -12 -4 -19 -1 -8 3 -5 6 6 6 11 1 17 -2 13 -5z m63 -4 c0 -5 -2 -10 -4
-10 -3 0 -8 5 -11 10 -3 6 -1 10 4 10 6 0 11 -4 11 -10z m93 3 c-7 -2 -19 -2
-25 0 -7 3 -2 5 12 5 14 0 19 -2 13 -5z m100 0 c-7 -2 -21 -2 -30 0 -10 3 -4
5 12 5 17 0 24 -2 18 -5z m47 -3 c0 -5 -2 -10 -4 -10 -3 0 -8 5 -11 10 -3 6
-1 10 4 10 6 0 11 -4 11 -10z m93 3 c-7 -2 -19 -2 -25 0 -7 3 -2 5 12 5 14 0
19 -2 13 -5z m60 0 c-7 -2 -19 -2 -25 0 -7 3 -2 5 12 5 14 0 19 -2 13 -5z"/>
</g>
</svg>
